REM DIRINDEX 1\2,1\3,1\4,1\5\6,1\5\7,1\8
REM DIRNAME folder01,folder02,folder03,folder04,folder05,folder06,folder07,folder08
TITLE ""
FILE "072 【072】Unit4 (0817 dominance_0828 administration).mp3" MP3
  TRACK 01 AUDIO
    TITLE "0:"
    INDEX 01 00:00:00
  TRACK 02 AUDIO
    TITLE "2:cjc115_2794"
    INDEX 01 00:00:07
  TRACK 03 AUDIO
    TITLE "0:"
    INDEX 01 00:01:40
  TRACK 04 AUDIO
    TITLE "3:cjc115_2795"
    INDEX 01 00:01:50
  TRACK 05 AUDIO
    TITLE "0:"
    INDEX 01 00:03:47
  TRACK 06 AUDIO
    TITLE "4:cjc115_2796"
    INDEX 01 00:03:55
  TRACK 07 AUDIO
    TITLE "0:"
    INDEX 01 00:07:37
  TRACK 08 AUDIO
    TITLE "2:cjc115_2797"
    INDEX 01 00:08:48
  TRACK 09 AUDIO
    TITLE "0:"
    INDEX 01 00:09:61
  TRACK 10 AUDIO
    TITLE "3:cjc115_2798"
    INDEX 01 00:09:73
  TRACK 11 AUDIO
    TITLE "0:"
    INDEX 01 00:12:07
  TRACK 12 AUDIO
    TITLE "4:cjc115_2799"
    INDEX 01 00:12:12
  TRACK 13 AUDIO
    TITLE "0:"
    INDEX 01 00:16:34
  TRACK 14 AUDIO
    TITLE "2:cjc115_2800"
    INDEX 01 00:17:43
  TRACK 15 AUDIO
    TITLE "0:"
    INDEX 01 00:18:64
  TRACK 16 AUDIO
    TITLE "3:cjc115_2801"
    INDEX 01 00:19:01
  TRACK 17 AUDIO
    TITLE "0:"
    INDEX 01 00:20:28
  TRACK 18 AUDIO
    TITLE "4:cjc115_2802"
    INDEX 01 00:20:37
  TRACK 19 AUDIO
    TITLE "0:"
    INDEX 01 00:22:74
  TRACK 20 AUDIO
    TITLE "2:cjc115_2803"
    INDEX 01 00:24:08
  TRACK 21 AUDIO
    TITLE "0:"
    INDEX 01 00:25:41
  TRACK 22 AUDIO
    TITLE "3:cjc115_2804"
    INDEX 01 00:25:50
  TRACK 23 AUDIO
    TITLE "0:"
    INDEX 01 00:28:43
  TRACK 24 AUDIO
    TITLE "4:cjc115_2805"
    INDEX 01 00:28:47
  TRACK 25 AUDIO
    TITLE "0:"
    INDEX 01 00:33:40
  TRACK 26 AUDIO
    TITLE "2:cjc115_2806"
    INDEX 01 00:34:43
  TRACK 27 AUDIO
    TITLE "0:"
    INDEX 01 00:35:70
  TRACK 28 AUDIO
    TITLE "3:cjc115_2807"
    INDEX 01 00:36:05
  TRACK 29 AUDIO
    TITLE "0:"
    INDEX 01 00:38:08
  TRACK 30 AUDIO
    TITLE "4:cjc115_2808"
    INDEX 01 00:38:12
  TRACK 31 AUDIO
    TITLE "0:"
    INDEX 01 00:43:29
  TRACK 32 AUDIO
    TITLE "2:cjc115_2809"
    INDEX 01 00:44:36
  TRACK 33 AUDIO
    TITLE "0:"
    INDEX 01 00:45:67
  TRACK 34 AUDIO
    TITLE "3:cjc115_2810"
    INDEX 01 00:46:00
  TRACK 35 AUDIO
    TITLE "0:"
    INDEX 01 00:47:36
  TRACK 36 AUDIO
    TITLE "4:cjc115_2811"
    INDEX 01 00:47:44
  TRACK 37 AUDIO
    TITLE "0:"
    INDEX 01 00:51:15
  TRACK 38 AUDIO
    TITLE "2:cjc115_2812"
    INDEX 01 00:52:22
  TRACK 39 AUDIO
    TITLE "0:"
    INDEX 01 00:53:58
  TRACK 40 AUDIO
    TITLE "3:cjc115_2813"
    INDEX 01 00:53:66
  TRACK 41 AUDIO
    TITLE "0:"
    INDEX 01 00:54:68
  TRACK 42 AUDIO
    TITLE "4:cjc115_2814"
    INDEX 01 00:55:03
  TRACK 43 AUDIO
    TITLE "0:"
    INDEX 01 00:58:13
  TRACK 44 AUDIO
    TITLE "2:cjc115_2815"
    INDEX 01 00:59:20
  TRACK 45 AUDIO
    TITLE "0:"
    INDEX 01 01:00:37
  TRACK 46 AUDIO
    TITLE "3:cjc115_2816"
    INDEX 01 01:00:47
  TRACK 47 AUDIO
    TITLE "0:"
    INDEX 01 01:02:12
  TRACK 48 AUDIO
    TITLE "4:cjc115_2817"
    INDEX 01 01:02:20
  TRACK 49 AUDIO
    TITLE "0:"
    INDEX 01 01:06:08
  TRACK 50 AUDIO
    TITLE "2:cjc115_2818"
    INDEX 01 01:07:14
  TRACK 51 AUDIO
    TITLE "0:"
    INDEX 01 01:08:42
  TRACK 52 AUDIO
    TITLE "3:cjc115_2819"
    INDEX 01 01:08:50
  TRACK 53 AUDIO
    TITLE "0:"
    INDEX 01 01:10:04
  TRACK 54 AUDIO
    TITLE "4:cjc115_2820"
    INDEX 01 01:10:10
  TRACK 55 AUDIO
    TITLE "0:"
    INDEX 01 01:13:47
  TRACK 56 AUDIO
    TITLE "2:cjc115_2821"
    INDEX 01 01:14:57
  TRACK 57 AUDIO
    TITLE "0:"
    INDEX 01 01:16:14
  TRACK 58 AUDIO
    TITLE "3:cjc115_2822"
    INDEX 01 01:16:22
  TRACK 59 AUDIO
    TITLE "0:"
    INDEX 01 01:17:67
  TRACK 60 AUDIO
    TITLE "4:cjc115_2823"
    INDEX 01 01:18:00
  TRACK 61 AUDIO
    TITLE "0:"
    INDEX 01 01:23:15
  TRACK 62 AUDIO
    TITLE "2:cjc115_2824"
    INDEX 01 01:24:16
  TRACK 63 AUDIO
    TITLE "0:"
    INDEX 01 01:25:53
  TRACK 64 AUDIO
    TITLE "3:cjc115_2825"
    INDEX 01 01:25:62
  TRACK 65 AUDIO
    TITLE "0:"
    INDEX 01 01:27:40
  TRACK 66 AUDIO
    TITLE "4:cjc115_2826"
    INDEX 01 01:27:51
  TRACK 67 AUDIO
    TITLE "0:"
    INDEX 01 01:31:20
  TRACK 68 AUDIO
    TITLE "2:cjc115_2827"
    INDEX 01 01:32:29
  TRACK 69 AUDIO
    TITLE "0:"
    INDEX 01 01:34:06
  TRACK 70 AUDIO
    TITLE "3:cjc115_2828"
    INDEX 01 01:34:14
  TRACK 71 AUDIO
    TITLE "0:"
    INDEX 01 01:36:09
  TRACK 72 AUDIO
    TITLE "4:cjc115_2829"
    INDEX 01 01:36:17
  TRACK 73 AUDIO
    TITLE "0:"
    INDEX 01 01:41:22
